<svg width="111" height="131" viewBox="0 0 111 131" fill="none" xmlns="http://www.w3.org/2000/svg">
<path d="M10.8848 64.5564C10.8848 90.0634 31.5425 110.743 57.0263 110.743C66.9295 110.743 76.5701 107.554 84.5233 101.647C92.4764 95.741 98.3203 87.4304 101.191 77.9437C104.062 68.457 103.808 58.2976 100.466 48.9667C97.1237 39.6359 90.8713 31.6286 82.6326 26.1284L80.6297 92.2165C80.6297 92.2676 80.6297 92.3213 80.6297 92.375C80.6297 95.6506 68.1292 98.3075 52.7062 98.3075C37.2831 98.3075 24.7826 95.6506 24.7826 92.3801C24.7826 92.3264 24.7826 92.2753 24.7826 92.2216V92.2011C24.8897 91.6947 25.18 91.2458 25.5976 90.9405L71.0544 20.5411C66.5207 19.0983 61.7913 18.366 57.0339 18.3701C31.5502 18.3701 10.8848 39.0494 10.8848 64.5564Z" fill="white"/>
<path d="M28.167 9.32876L25.8396 0.000488281H23.3896L21.0801 9.32876L18.7476 0.000488281H16.3027L19.8564 14.2307H22.3039L24.6134 4.89988L26.9459 14.2307H29.3933L32.9291 0.000488281H30.4995L28.167 9.32876Z" fill="white"/>
<path d="M34.9053 14.2307H36.0881V14.2512H43.3947V11.8577H37.2735V8.30082H42.2119V5.93039H37.2735V2.37091H43.3947V0.000488281H34.9053V14.2307Z" fill="white"/>
<path d="M53.9787 6.60234C54.3454 6.25035 54.6313 5.82283 54.8167 5.34936C55.0052 4.8812 55.1023 4.38123 55.1028 3.87648C55.1137 3.02472 54.8191 2.19728 54.2725 1.54441C53.8815 1.05794 53.3851 0.666965 52.8207 0.401133C52.2563 0.135302 51.6389 0.00159418 51.0152 0.010152H46.1611V14.2327H51.3141C52.0834 14.2412 52.8419 14.051 53.5163 13.6804C54.1733 13.3165 54.7245 12.7877 55.1156 12.1461C55.5196 11.5005 55.7355 10.7548 55.7389 9.99304C55.7142 9.3192 55.5461 8.65838 55.2459 8.05477C54.9556 7.46943 54.5191 6.96911 53.9787 6.60234ZM48.509 2.07628H50.6626C50.821 2.07628 50.9692 2.07628 51.1071 2.09418C51.2539 2.11034 51.3971 2.15006 51.5312 2.21181C51.8639 2.34882 52.1415 2.59259 52.3207 2.90478C52.5029 3.20778 52.5992 3.55477 52.5992 3.90844C52.5992 4.26211 52.5029 4.6091 52.3207 4.9121C52.1443 5.2283 51.866 5.4753 51.5312 5.61274C51.4136 5.65978 51.2911 5.69324 51.1659 5.71247C51.0329 5.73827 50.8978 5.75197 50.7623 5.75338H48.509V2.07628ZM52.9006 11.1693C52.6798 11.5415 52.3446 11.8321 51.9451 11.9978C51.7564 12.0748 51.5559 12.1189 51.3524 12.1282C51.0969 12.1461 50.752 12.1563 50.3075 12.1563H48.5192V7.82974H50.3075C50.7801 7.82974 51.125 7.82974 51.3447 7.85787C51.5504 7.87601 51.7529 7.91982 51.9477 7.98828C52.3469 8.14005 52.6835 8.42199 52.9031 8.78865C53.1209 9.14854 53.2342 9.56207 53.2301 9.98282C53.2294 10.4008 53.1155 10.8109 52.9006 11.1693Z" fill="white"/>
<path d="M60.8708 0.000488281H58.5V14.2512H60.8708V0.000488281Z" fill="white"/>
<path d="M73.1617 7.48501C73.6053 6.62435 73.8258 5.66595 73.8029 4.69778C73.8029 3.31524 73.4376 2.18927 72.707 1.31986C71.9763 0.450447 70.9544 0.0148883 69.6412 0.0131836H64.4219V14.2306H66.6931V9.48722H68.9923L71.2916 14.2306H73.8004L71.3325 9.15224C72.1189 8.82875 72.7665 8.23852 73.1617 7.48501ZM70.8318 6.71789C70.613 6.96153 70.3418 7.15232 70.0387 7.2759C69.7355 7.39948 69.4084 7.45261 69.0818 7.43131H66.6931V2.07676H69.0818C69.4049 2.05667 69.7284 2.10839 70.0292 2.2282C70.33 2.348 70.6006 2.53293 70.8215 2.76973C71.2303 3.23257 71.4321 3.88463 71.4321 4.72847C71.4321 5.57231 71.2329 6.24738 70.8318 6.71789Z" fill="white"/>
<path d="M78.8411 0.000488281L74.498 14.2307H76.8484L78.0338 10.3772H82.9287L84.0912 14.2307H86.4415L82.0984 0.000488281H78.8411ZM78.7594 7.99652L80.4787 2.37091L82.1981 7.99652H78.7594Z" fill="white"/>
<path d="M91.8932 5.95084L88.6537 0.000488281H85.9482L90.6694 8.30081V14.2307H93.0198V8.30081L97.7972 0.000488281H95.268L91.8932 5.95084Z" fill="white"/>
<path d="M22.3173 118.988L19.6263 130.816H18.5964L15.8389 118.988H17.0847L18.8788 127.128L19.1279 128.59L19.3771 127.128L21.1047 118.988H22.3173Z" fill="white"/>
<path d="M34.1808 130.816H32.9516V118.988H34.1808V130.816Z" fill="white"/>
<path d="M50.7236 127.643C50.7236 128.795 50.4799 129.631 49.9927 130.151C49.5165 130.661 48.8077 130.915 47.8664 130.915C47.0137 130.915 46.3548 130.677 45.8897 130.201C45.4245 129.714 45.1754 129.016 45.1421 128.108H46.3382C46.3825 128.728 46.5264 129.166 46.7701 129.42C47.0137 129.664 47.3847 129.786 47.883 129.786C48.4589 129.786 48.8742 129.625 49.1289 129.304C49.3836 128.972 49.5109 128.435 49.5109 127.693C49.5109 126.906 49.3836 126.342 49.1289 125.998C48.9295 125.755 48.5973 125.55 48.1322 125.384L47.5176 125.168C47.0746 125.013 46.7368 124.863 46.5043 124.719C46.2828 124.575 46.0779 124.387 45.8897 124.154C45.5131 123.678 45.3249 122.925 45.3249 121.895C45.3249 119.891 46.2164 118.889 47.9993 118.889C48.8077 118.889 49.4279 119.094 49.8598 119.503C50.2917 119.913 50.5409 120.6 50.6073 121.563H49.4113C49.3781 120.998 49.2507 120.594 49.0292 120.35C48.8188 120.096 48.47 119.968 47.9827 119.968C47.4733 119.968 47.1023 120.118 46.8697 120.417C46.6372 120.716 46.5209 121.198 46.5209 121.862C46.5209 122.571 46.6261 123.058 46.8365 123.324C47.0137 123.568 47.357 123.778 47.8664 123.955L48.4478 124.154C49.2009 124.409 49.738 124.719 50.0591 125.085C50.5021 125.605 50.7236 126.458 50.7236 127.643Z" fill="white"/>
<path d="M62.9893 130.816H61.76V118.988H62.9893V130.816Z" fill="white"/>
<path d="M79.9805 127.493C79.9805 129.775 79.0337 130.915 77.14 130.915C75.2352 130.915 74.2828 129.775 74.2828 127.493V122.311C74.2828 120.029 75.2352 118.889 77.14 118.889C79.0337 118.889 79.9805 120.029 79.9805 122.311V127.493ZM78.7679 127.344V122.444C78.7679 121.469 78.6239 120.821 78.336 120.5C78.0591 120.168 77.6605 120.002 77.14 120.002C76.6195 120.002 76.2153 120.168 75.9273 120.5C75.6505 120.821 75.5121 121.469 75.5121 122.444V127.344C75.5121 128.318 75.6505 128.972 75.9273 129.304C76.2153 129.636 76.6195 129.802 77.14 129.802C77.6605 129.802 78.0591 129.636 78.336 129.304C78.6239 128.972 78.7679 128.318 78.7679 127.344Z" fill="white"/>
<path d="M97.2457 130.816H96.1328L92.6942 122.543L92.362 121.596L92.4118 122.659V130.816H91.249V118.988H92.3786L95.8006 127.228L96.1328 128.224L96.0996 127.128V118.988H97.2457V130.816Z" fill="white"/>
<path fill-rule="evenodd" clip-rule="evenodd" d="M40.8369 82.8618C40.8369 82.8618 48.3862 91.8332 57.6944 91.8332C67.0044 91.8332 74.549 82.8618 74.549 82.8618C74.549 82.8618 67.0044 74.2886 57.6944 74.2886C48.3862 74.2886 40.8369 82.8618 40.8369 82.8618ZM50.2265 83.1675C50.2265 79.4841 53.2113 76.496 56.8964 76.496C60.5814 76.496 63.5662 79.4841 63.5662 83.1675C63.5662 86.8541 60.5814 89.839 56.8964 89.839C53.2113 89.839 50.2265 86.8509 50.2265 83.1675Z" fill="white"/>
<circle cx="56.9863" cy="83.0576" r="3.69142" fill="white"/>
</svg>
